<?xml version="1.0" encoding="utf-8"?>
<!-- Generator: Moho 12.3 build 22017 -->
<!DOCTYPE svg PUBLIC "-//W3C//DTD SVG 1.1//EN" "http://www.w3.org/Graphics/SVG/1.1/DTD/svg11.dtd">
<svg viewBox="0 0 120 120" version="1.1" id="Frame_0" xmlns="http://www.w3.org/2000/svg" xmlns:xlink="http://www.w3.org/1999/xlink" width="25px" height="25px">
<g id="Layer_2">
<path fill="#ffffff" fill-rule="evenodd" stroke="none" d="M 18.905 39.766 C 23.024 66.772 4.213 88.927 4.212 88.932 C 4.213 88.934 17.962 109.651 17.963 109.653 C 17.968 109.654 42.262 100.424 67.318 115.116 C 80.147 90.112 42.226 35.780 18.905 39.766 Z"/>
<path fill="#fbfbfb" fill-rule="evenodd" stroke="none" d="M 65.563 65.121 C 38.896 28.566 32.540 6.477 35.694 4.176 C 38.848 1.875 57.942 14.673 84.608 51.227 C 111.275 87.782 117.631 109.871 114.477 112.172 C 111.323 114.473 92.229 101.675 65.563 65.121 M 68.585 62.916 C 46.844 33.113 40.250 15.821 42.821 13.945 C 45.392 12.070 59.845 23.630 81.586 53.432 C 103.326 83.235 109.921 100.527 107.350 102.403 C 104.779 104.279 90.326 92.719 68.585 62.916 Z"/>
<path fill="#f1f1f1" fill-rule="evenodd" stroke="none" d="M 60.126 67.080 C 42.105 42.376 37.810 27.448 39.941 25.893 C 42.073 24.338 54.976 32.987 72.997 57.690 C 91.018 82.393 95.314 97.322 93.182 98.877 C 91.051 100.431 78.147 91.783 60.126 67.080 M 62.169 65.589 C 47.477 45.449 43.020 33.763 44.757 32.495 C 46.495 31.228 56.262 39.040 70.954 59.180 C 85.647 79.321 90.104 91.007 88.366 92.274 C 86.628 93.542 76.861 85.730 62.169 65.589 Z"/>
</g>
</svg>
